<svg width="200" height="60" viewBox="0 0 200 60" xmlns="http://www.w3.org/2000/svg">
  <!-- Shopping bag icon -->
  <g transform="translate(15, 12)">
    <!-- Bag body -->
    <path d="M8 12 L24 12 L25.5 32 C25.6 33.1 24.7 34 23.6 34 L8.4 34 C7.3 34 6.4 33.1 6.5 32 L8 12 Z" 
          fill="#D4941E" 
          stroke="#B8821A" 
          stroke-width="1"/>
    
    <!-- Bag handles -->
    <path d="M12 12 L12 8 C12 6.9 12.9 6 14 6 L18 6 C19.1 6 20 6.9 20 8 L20 12" 
          fill="none" 
          stroke="#B8821A" 
          stroke-width="2"/>
    
    <!-- Bag highlight -->
    <path d="M10 14 L22 14 L23 28 L9 28 L10 14 Z" 
          fill="#E6A332" 
          opacity="0.3"/>
  </g>
  
  <!-- Store text -->
  <text x="55" y="25" 
        font-family="Arial, sans-serif" 
        font-size="18" 
        font-weight="bold" 
        fill="#2C3E50">My</text>
  
  <text x="55" y="45" 
        font-family="Arial, sans-serif" 
        font-size="18" 
        font-weight="bold" 
        fill="#2C3E50">Store</text>
  
  <!-- Decorative element -->
  <circle cx="165" cy="30" r="3" fill="#D4941E" opacity="0.6"/>
  <circle cx="175" cy="25" r="2" fill="#D4941E" opacity="0.4"/>
  <circle cx="175" cy="35" r="2" fill="#D4941E" opacity="0.4"/>
</svg>